<?xml version="1.0" encoding="UTF-8" standalone="no"?>
<!-- Created with Inkscape (http://www.inkscape.org/) -->

<svg
   width="493.65604"
   height="77.664001"
   viewBox="0 0 493.65604 77.664001"
   version="1.1"
   id="svg1"
   xml:space="preserve"
   xmlns="http://www.w3.org/2000/svg"
   xmlns:svg="http://www.w3.org/2000/svg"><defs
     id="defs1" /><g
     id="layer1"
     transform="translate(-0.62637419,-229.27634)"><g
       id="text1"
       style="font-size:96px;letter-spacing:3px;fill:#b33a32;stroke-width:4.23302"
       aria-label="KeziaOlive"><path
         style="font-style:italic;font-weight:600;font-family:'Playfair Display';-inkscape-font-specification:'Playfair Display Semi-Bold Italic';fill:#000000"
         d="m 23.954374,295.42034 q -0.864,3.456 -0.768,5.184 0.096,1.728 1.632,2.304 1.536,0.576 4.8,0.768 l -0.384,1.92 q -2.496,-0.192 -6.336,-0.192 -3.84,-0.096 -7.776,-0.096 -4.416,0 -8.2559998,0.096 -3.744,0 -6.24,0.192 l 0.48,-1.92 q 3.168,-0.192 4.896,-0.768 1.824,-0.576 2.88,-2.304 1.056,-1.728 1.9199998,-5.184 l 12.672,-47.616 q 0.96,-3.552 0.768,-5.184 -0.192,-1.728 -1.728,-2.304 -1.44,-0.672 -4.704,-0.768 l 0.48,-1.92 q 2.304,0.096 6.144,0.192 3.936,0.096 8.352,0.096 3.936,0 7.68,-0.096 3.84,-0.096 6.528,-0.192 l -0.48,1.92 q -3.264,0.096 -5.088,0.768 -1.824,0.576 -2.88,2.304 -0.96,1.632 -1.92,5.184 z m 33.984,5.088 q 2.016,0 3.36,-1.536 1.44,-1.632 2.496,-4.8 l 1.632,-4.896 h 1.92 l -2.496,7.392 q -1.824,5.28 -5.088,7.776 -3.168,2.496 -7.392,2.496 -5.568,0 -8.064,-3.168 -2.496,-3.168 -1.92,-8.64 l 1.536,-12.576 q 0.384,-3.936 0.096,-6.144 -0.288,-2.304 -1.152,-3.552 -0.864,-1.344 -2.496,-2.304 l 0.192,-0.96 q 4.512,0.384 7.584,1.248 3.168,0.864 5.088,2.688 1.92,1.728 2.592,4.8 0.768,2.976 0.384,7.872 l -0.864,10.368 q -0.096,1.728 0.384,2.88 0.576,1.056 2.208,1.056 z m -16.224,-29.472 q -5.184,1.44 -7.104,1.056 -1.824,-0.384 -1.632,-1.92 0.096,-1.44 1.92,-1.824 1.824,-0.48 6.816,0.96 z m 21.888,-31.008 q -1.728,1.824 -2.976,4.8 -1.152,2.88 -2.208,6.336 -1.056,3.36 -2.4,6.816 -1.248,3.36 -3.264,6.24 -1.92,2.784 -4.896,4.512 -2.976,1.632 -7.392,1.536 l 0.192,-0.96 q 4.896,-0.48 7.776,-2.976 2.976,-2.496 4.704,-6.24 1.728,-3.744 2.88,-7.776 1.248,-4.128 2.592,-7.68 1.344,-3.552 3.552,-5.76 1.632,-1.536 3.264,-2.016 1.728,-0.576 3.264,-0.576 3.936,0 5.952,2.208 2.112,2.112 2.016,5.472 -0.096,1.824 -0.96,3.744 -0.864,1.92 -2.592,3.264 -1.632,1.344 -4.128,1.344 -2.496,0 -4.032,-1.536 -1.536,-1.632 -1.536,-4.128 0.096,-2.304 1.632,-4.608 1.632,-2.4 4.224,-3.744 -0.288,0 -0.576,-0.096 -0.192,-0.096 -0.672,-0.096 -1.536,0.096 -2.496,0.576 -0.96,0.48 -1.92,1.344 z m 21.815996,44.448 q 4.512,-1.728 8.256,-3.552 3.84,-1.92 6.432,-4.032 3.552,-3.168 5.76,-7.392 2.208,-4.32 2.208,-9.408 0,-2.208 -0.384,-2.88 -0.384,-0.672 -1.152,-0.672 -2.208,0 -4.8,2.112 -2.592,2.112 -5.088,5.856 -2.496,3.648 -4.608,8.256 -2.016,4.608 -3.264,9.696 -1.248,5.088 -1.248,10.08 0,5.088 1.92,7.2 2.016,2.016 5.28,2.016 2.784,0 6.624,-1.824 3.84,-1.824 7.584,-6.624 l 1.536,0.768 q -1.92,3.168 -5.088,6.144 -3.168,2.976 -7.296,4.896 -4.032,1.824 -8.928,1.824 -4.032,0 -7.296,-1.536 -3.264,-1.536 -5.088,-4.512 -1.824,-3.072 -1.824,-7.488 0,-4.704 1.632,-9.984 1.632,-5.376 4.608,-10.464 3.072,-5.088 7.2,-9.216 4.224,-4.128 9.312,-6.528 5.088,-2.496 10.944,-2.496 3.84,0 6.432,1.824 2.592,1.728 2.592,5.376 0,3.744 -2.112,7.008 -2.112,3.264 -5.76,5.952 -3.552,2.688 -7.872,4.8 -4.224,2.112 -8.544,3.648 -4.32,1.536 -8.064,2.496 z m 38.71194,16.32 q 2.112,-1.152 4.032,-2.4 2.016,-1.248 3.744,-2.208 1.824,-1.056 3.456,-1.728 1.632,-0.672 3.264,-0.672 2.304,0 4.032,0.768 1.728,0.768 3.36,1.536 1.632,0.768 3.744,0.768 2.016,0 3.072,-1.056 1.056,-1.056 1.056,-2.784 0,-2.4 -1.824,-3.84 -1.824,-1.536 -4.416,-2.112 l 0.576,-1.44 q 4.896,1.056 7.296,3.552 2.496,2.496 2.496,6.336 0,2.88 -1.248,5.472 -1.152,2.496 -3.744,4.032 -2.592,1.44 -6.72,1.44 -2.88,0 -4.992,-0.768 -2.112,-0.672 -4.032,-1.632 -1.92,-0.96 -4.128,-1.632 -2.208,-0.768 -5.184,-0.768 -2.496,0 -4.608,0.864 -2.016,0.768 -4.032,3.072 h -2.784 l 45.504,-45.024 q -2.304,1.152 -4.512,2.496 -2.112,1.344 -4.032,2.592 -1.92,1.152 -3.744,1.92 -1.824,0.672 -3.456,0.672 -2.304,0 -4.032,-0.768 -1.728,-0.768 -3.36,-1.536 -1.632,-0.768 -3.648,-0.768 -1.92,0 -3.072,1.056 -1.152,0.96 -1.152,2.784 0,2.208 1.728,3.744 1.728,1.44 4.512,2.208 l -0.576,1.44 q -4.608,-1.056 -7.2,-3.456 -2.592,-2.4 -2.592,-6.24 0,-2.88 1.344,-5.472 1.344,-2.592 4.128,-4.224 2.88,-1.632 7.392,-1.632 2.784,0 4.896,0.672 2.112,0.672 3.936,1.632 1.92,0.96 4.032,1.632 2.112,0.672 5.088,0.672 2.688,0 4.704,-0.768 2.016,-0.864 3.936,-3.168 h 2.784 z m 61.27207,-61.248 q 0.288,-3.552 2.88,-5.664 2.592,-2.112 6.048,-2.112 3.168,0 4.8,1.824 1.728,1.728 1.44,4.512 -0.288,3.264 -2.88,5.472 -2.592,2.208 -6.048,2.208 -3.168,0 -4.896,-1.728 -1.632,-1.824 -1.344,-4.512 z m -3.36,24.672 q 1.728,-5.184 -1.152,-5.184 -1.92,0 -3.456,2.016 -1.536,1.92 -3.264,6.24 l -1.632,4.512 h -1.824 l 2.496,-7.2 q 1.44,-3.84 3.456,-5.952 2.016,-2.208 4.512,-3.072 2.496,-0.864 4.896,-0.864 3.36,0 5.088,1.248 1.728,1.248 2.304,3.264 0.576,2.016 0.288,4.416 -0.288,2.304 -1.056,4.512 l -10.176,29.28 q -0.864,2.592 -0.48,3.936 0.384,1.248 1.824,1.248 1.536,0 3.072,-1.632 1.632,-1.728 3.456,-6.624 l 1.632,-4.32 h 1.824 l -2.4,7.008 q -1.44,3.84 -3.456,6.048 -2.016,2.112 -4.416,2.976 -2.4,0.864 -4.704,0.864 -4.224,0 -6.144,-1.824 -1.92,-1.92 -1.92,-5.184 0,-3.36 1.536,-7.68 z m 34.776,38.304 q 1.728,0 3.936,-2.016 2.208,-2.112 4.512,-5.856 2.304,-3.744 4.416,-8.928 2.112,-5.184 3.648,-11.328 l -2.016,10.368 q -2.784,8.16 -5.952,13.056 -3.072,4.896 -6.528,7.008 -3.36,2.112 -7.008,2.112 -5.184,0 -7.68,-3.168 -2.496,-3.264 -2.496,-8.64 0,-4.992 1.632,-10.464 1.632,-5.568 4.512,-10.848 2.976,-5.376 6.72,-9.6 3.744,-4.32 7.968,-6.912 4.224,-2.592 8.448,-2.592 3.264,0 4.992,2.784 1.728,2.688 0.864,8.256 l -1.056,0.576 q 0.672,-4.032 -0.384,-6.336 -0.96,-2.304 -3.264,-2.304 -2.208,0 -4.704,2.304 -2.4,2.304 -4.8,6.24 -2.4,3.936 -4.416,8.928 -1.92,4.992 -3.072,10.368 -1.152,5.376 -1.152,10.464 0,3.552 0.672,5.088 0.768,1.44 2.208,1.44 z m 21.6,-46.464 q 3.456,-0.096 6.432,-0.384 3.072,-0.288 5.856,-0.96 l -12.384,42.624 q -0.384,1.152 -0.576,2.4 -0.096,1.152 0.192,2.016 0.384,0.768 1.632,0.768 1.536,0 3.168,-1.632 1.632,-1.632 3.36,-6.624 l 1.44,-4.32 h 1.824 l -2.4,7.008 q -1.344,3.936 -3.36,6.144 -2.016,2.112 -4.32,2.976 -2.208,0.864 -4.416,0.864 -4.608,0 -6.528,-2.88 -1.248,-2.112 -0.96,-5.184 0.288,-3.072 1.248,-6.624 z"
         id="path1" /><path
         style="font-style:italic;font-weight:600;font-family:'Playfair Display';-inkscape-font-specification:'Playfair Display Semi-Bold Italic'"
         d="m 302.76246,238.01234 q -4.128,0 -8.16,2.688 -3.936,2.592 -7.392,7.296 -3.36,4.608 -5.952,10.656 -2.592,5.952 -4.128,12.768 -1.44,6.816 -1.44,13.728 0,9.408 3.168,14.784 3.168,5.28 8.16,5.28 4.128,0 8.064,-2.592 4.032,-2.688 7.392,-7.296 3.456,-4.704 6.048,-10.656 2.592,-6.048 4.032,-12.864 1.536,-6.816 1.536,-13.728 0,-9.408 -3.168,-14.688 -3.168,-5.376 -8.16,-5.376 z m -41.472,45.888 q 0,-6.336 1.92,-13.056 1.92,-6.72 5.568,-12.864 3.648,-6.144 8.832,-11.04 5.28,-4.896 11.808,-7.776 6.528,-2.88 14.208,-2.88 11.712,0 18.336,6.048 6.624,5.952 6.624,17.088 0,6.336 -2.016,13.056 -1.92,6.624 -5.568,12.768 -3.648,6.144 -8.928,11.04 -5.184,4.896 -11.808,7.776 -6.528,2.88 -14.112,2.88 -11.712,0 -18.336,-5.952 -6.528,-6.048 -6.528,-17.088 z m 84.02397,13.536 q -0.768,2.592 -0.384,3.936 0.48,1.248 1.92,1.248 1.344,0 2.88,-1.632 1.632,-1.728 3.456,-6.624 l 1.536,-4.32 h 1.824 l -2.4,7.008 q -1.344,3.84 -3.36,6.048 -2.016,2.112 -4.32,2.976 -2.304,0.864 -4.704,0.864 -3.072,0 -4.896,-1.152 -1.824,-1.152 -2.496,-3.168 -0.672,-2.016 -0.48,-4.608 0.192,-2.688 1.152,-5.76 l 15.264,-50.688 q 0.96,-3.264 -0.192,-4.8 -1.152,-1.536 -5.856,-1.536 l 0.672,-2.016 q 6.24,-0.096 11.136,-1.056 4.896,-1.056 9.408,-2.88 z m 36.11993,-57.888 q 0.288,-3.552 2.88,-5.664 2.592,-2.112 6.048,-2.112 3.168,0 4.8,1.824 1.728,1.728 1.44,4.512 -0.288,3.264 -2.88,5.472 -2.592,2.208 -6.048,2.208 -3.168,0 -4.896,-1.728 -1.632,-1.824 -1.344,-4.512 z m -3.36,24.672 q 1.728,-5.184 -1.152,-5.184 -1.92,0 -3.456,2.016 -1.536,1.92 -3.264,6.24 l -1.632,4.512 h -1.824 l 2.496,-7.2 q 1.44,-3.84 3.456,-5.952 2.016,-2.208 4.512,-3.072 2.496,-0.864 4.896,-0.864 3.36,0 5.088,1.248 1.728,1.248 2.304,3.264 0.576,2.016 0.288,4.416 -0.288,2.304 -1.056,4.512 l -10.176,29.28 q -0.864,2.592 -0.48,3.936 0.384,1.248 1.824,1.248 1.536,0 3.072,-1.632 1.632,-1.728 3.456,-6.624 l 1.632,-4.32 h 1.824 l -2.4,7.008 q -1.44,3.84 -3.456,6.048 -2.016,2.112 -4.416,2.976 -2.4,0.864 -4.704,0.864 -4.224,0 -6.144,-1.824 -1.92,-1.92 -1.92,-5.184 0,-3.36 1.536,-7.68 z m 64.44,8.16 q -3.552,-1.632 -6.24,-4.704 -2.592,-3.168 -2.4,-7.488 0.096,-2.784 1.728,-4.128 1.632,-1.44 3.744,-1.44 3.552,0 4.992,3.36 1.44,3.264 1.056,8.544 -0.384,5.568 -1.824,11.328 -1.44,5.664 -4.032,10.848 -2.496,5.184 -6.144,9.312 -3.648,4.128 -8.352,6.528 -4.704,2.4 -10.56,2.4 -4.992,0 -7.776,-1.728 -2.784,-1.824 -3.936,-4.512 -1.056,-2.784 -0.96,-5.664 0.288,-5.76 3.456,-11.904 3.264,-6.144 8.64,-12.384 5.472,-6.24 12.48,-12.192 -2.112,0.384 -4.032,1.536 -1.824,1.152 -3.456,2.496 -1.632,1.248 -3.168,2.208 -1.536,0.96 -3.168,0.96 -1.728,0 -2.976,-0.96 -1.152,-1.056 -2.688,-1.056 -1.44,0 -2.304,1.152 -0.864,1.056 -1.728,3.84 l -0.96,2.976 h -1.824 l 2.112,-7.008 q 1.728,-5.952 4.128,-7.968 2.4,-2.016 4.896,-2.016 1.824,0 3.072,0.864 1.344,0.768 2.784,1.632 1.44,0.864 3.648,0.864 1.728,0 3.648,-0.48 1.92,-0.576 3.648,-1.92 l 0.96,-1.824 2.016,0.96 q -3.552,4.896 -6.432,9.984 -2.88,5.088 -4.992,10.176 -2.016,5.088 -3.264,9.984 -1.152,4.8 -1.44,9.216 -0.192,4.608 0.864,6.72 1.152,2.112 3.36,2.112 3.936,0 7.296,-1.92 3.36,-2.016 6.048,-5.28 2.784,-3.36 4.8,-7.392 2.112,-4.128 3.36,-8.256 1.344,-4.128 1.92,-7.776 z m 19.51204,12.096 q 4.512,-1.728 8.256,-3.552 3.84,-1.92 6.432,-4.032 3.552,-3.168 5.76,-7.392 2.208,-4.32 2.208,-9.408 0,-2.208 -0.384,-2.88 -0.384,-0.672 -1.152,-0.672 -2.208,0 -4.8,2.112 -2.592,2.112 -5.088,5.856 -2.496,3.648 -4.608,8.256 -2.016,4.608 -3.264,9.696 -1.248,5.088 -1.248,10.08 0,5.088 1.92,7.2 2.016,2.016 5.28,2.016 2.784,0 6.624,-1.824 3.84,-1.824 7.584,-6.624 l 1.536,0.768 q -1.92,3.168 -5.088,6.144 -3.168,2.976 -7.296,4.896 -4.032,1.824 -8.928,1.824 -4.032,0 -7.296,-1.536 -3.264,-1.536 -5.088,-4.512 -1.824,-3.072 -1.824,-7.488 0,-4.704 1.632,-9.984 1.632,-5.376 4.608,-10.464 3.072,-5.088 7.2,-9.216 4.224,-4.128 9.312,-6.528 5.088,-2.496 10.944,-2.496 3.84,0 6.432,1.824 2.592,1.728 2.592,5.376 0,3.744 -2.112,7.008 -2.112,3.264 -5.76,5.952 -3.552,2.688 -7.872,4.8 -4.224,2.112 -8.544,3.648 -4.32,1.536 -8.064,2.496 z"
         id="path2" /></g></g></svg>
