<?xml version="1.0" encoding="UTF-8" standalone="no"?>
<svg
   width="54px"
   height="54px"
   viewBox="0 0 54 54"
   version="1.1"
   id="svg1"
   sodipodi:docname="logo-mobile.svg"
   inkscape:version="1.3.2 (091e20e, 2023-11-25)"
   xmlns:inkscape="http://www.inkscape.org/namespaces/inkscape"
   xmlns:sodipodi="http://sodipodi.sourceforge.net/DTD/sodipodi-0.dtd"
   xmlns="http://www.w3.org/2000/svg"
   xmlns:svg="http://www.w3.org/2000/svg"
   xmlns:rdf="http://www.w3.org/1999/02/22-rdf-syntax-ns#"
   xmlns:cc="http://creativecommons.org/ns#"
   xmlns:dc="http://purl.org/dc/elements/1.1/">
  <defs
     id="defs1" />
  <sodipodi:namedview
     id="namedview1"
     pagecolor="#ffffff"
     bordercolor="#000000"
     borderopacity="0.25"
     inkscape:showpageshadow="2"
     inkscape:pageopacity="0.0"
     inkscape:pagecheckerboard="0"
     inkscape:deskcolor="#d1d1d1"
     inkscape:zoom="4.3703704"
     inkscape:cx="26.885593"
     inkscape:cy="26.885593"
     inkscape:window-width="1472"
     inkscape:window-height="920"
     inkscape:window-x="0"
     inkscape:window-y="36"
     inkscape:window-maximized="0"
     inkscape:current-layer="logo-mobile" />
  <title
     id="title1">logo-mobile</title>
  <g
     id="Page-1"
     stroke="none"
     stroke-width="1"
     fill="none"
     fill-rule="evenodd">
    <g
       id="logo-mobile">
      <rect
         id="Rectangle-6"
         stroke="#E5261F"
         stroke-width="4"
         fill-rule="nonzero"
         x="2"
         y="2"
         width="50"
         height="50" />
      <path
         d="m 19.577516,35.842268 q -0.36129,1.445159 -0.321147,2.167738 0.04014,0.72258 0.682436,0.96344 0.642293,0.240859 2.007165,0.321146 l -0.160573,0.802866 q -1.043726,-0.08029 -2.649457,-0.08029 -1.605732,-0.04014 -3.251608,-0.04014 -1.846591,0 -3.452323,0.04014 -1.565589,0 -2.6093149,0.08029 l 0.2007169,-0.802866 q 1.324728,-0.08029 2.047308,-0.321146 0.762723,-0.24086 1.204299,-0.96344 0.441576,-0.722579 0.802866,-2.167738 l 5.298915,-19.911076 q 0.401433,-1.485302 0.321147,-2.167738 -0.08029,-0.72258 -0.72258,-0.96344 -0.602149,-0.281003 -1.967021,-0.321146 l 0.200716,-0.802866 q 0.963439,0.04014 2.569171,0.08029 1.645876,0.04014 3.492467,0.04014 1.645876,0 3.211464,-0.04014 1.605732,-0.04014 2.729745,-0.08029 l -0.200717,0.802866 q -1.364872,0.04014 -2.127595,0.321146 -0.762722,0.24086 -1.204299,0.96344 -0.401433,0.682436 -0.802866,2.167738 z m 14.210728,2.127595 q 0.843009,0 1.405015,-0.642293 0.60215,-0.682436 1.043726,-2.007165 l 0.682436,-2.047308 h 0.802866 l -1.043726,3.091034 q -0.762722,2.207882 -2.127595,3.251607 -1.324729,1.043726 -3.091034,1.043726 -2.328311,0 -3.372037,-1.324729 -1.043726,-1.324729 -0.802866,-3.612897 l 0.642293,-5.258772 q 0.160573,-1.645875 0.04014,-2.569171 -0.12043,-0.963439 -0.481719,-1.485302 -0.36129,-0.562006 -1.043726,-0.963439 l 0.08029,-0.401433 q 1.886735,0.160573 3.17132,0.521863 1.324729,0.361289 2.127595,1.124012 0.802866,0.722579 1.083869,2.007165 0.321146,1.244442 0.160573,3.29175 l -0.361289,4.335477 q -0.04014,0.722579 0.160573,1.204299 0.24086,0.441576 0.923296,0.441576 z M 27.004026,25.64587 q -2.167738,0.60215 -2.970604,0.441576 -0.762723,-0.160573 -0.682436,-0.802865 0.04014,-0.60215 0.802866,-0.762723 0.762723,-0.200717 2.850174,0.401433 z m 9.152672,-12.966285 q -0.722579,0.762722 -1.244442,2.007165 -0.48172,1.204299 -0.923296,2.649457 -0.441576,1.405016 -1.003582,2.850175 -0.521863,1.405015 -1.364872,2.609314 -0.802866,1.164156 -2.047309,1.886735 -1.244442,0.682436 -3.091034,0.642293 l 0.08029,-0.401433 q 2.047308,-0.200717 3.251607,-1.244442 1.244442,-1.043726 1.967022,-2.609315 0.722579,-1.565589 1.204299,-3.251607 0.521863,-1.726162 1.083869,-3.211464 0.562006,-1.485302 1.485302,-2.408598 0.682436,-0.642293 1.364872,-0.843009 0.722579,-0.24086 1.364872,-0.24086 1.645875,0 2.488885,0.923296 0.883152,0.883152 0.843009,2.288168 -0.04014,0.762723 -0.401433,1.565589 -0.36129,0.802866 -1.083869,1.364872 -0.682436,0.562006 -1.726162,0.562006 -1.043726,0 -1.686018,-0.642293 -0.642293,-0.682436 -0.642293,-1.726162 0.04014,-0.963439 0.682436,-1.926878 0.682436,-1.003583 1.766305,-1.565589 -0.12043,0 -0.24086,-0.04014 -0.08029,-0.04014 -0.281003,-0.04014 -0.642293,0.04014 -1.043726,0.240859 -0.401433,0.200717 -0.802866,0.562007 z"
         id="text1"
         style="font-style:italic;font-weight:600;font-size:40.1433px;font-family:'Playfair Display';-inkscape-font-specification:'Playfair Display Semi-Bold Italic';letter-spacing:0px;fill:#000000;stroke-width:0.418159"
         transform="scale(0.95089267,1.0516434)"
         aria-label="K"
         inkscape:label="K" />
      <path
         id="."
         fill="#e5261f"
         d="m 38.749458,41.895 c -0.476003,-0.518003 -0.714,-1.154996 -0.714,-1.911 0,-0.756004 0.244997,-1.399997 0.735,-1.932 0.490002,-0.532003 1.070996,-0.798 1.743,-0.798 0.700003,0 1.280997,0.265997 1.743,0.798 0.462002,0.532003 0.693,1.175996 0.693,1.932 0,0.756004 -0.244998,1.392997 -0.735,1.911 -0.490003,0.518003 -1.070997,0.777 -1.743,0.777 -0.672004,0 -1.245998,-0.258997 -1.722,-0.777 z" />
    </g>
  </g>
  <metadata
     id="metadata1">
    <rdf:RDF>
      <cc:Work
         rdf:about="">
        <dc:title>logo-mobile</dc:title>
      </cc:Work>
    </rdf:RDF>
  </metadata>
</svg>
