<?xml version="1.0" encoding="UTF-8" standalone="no"?>
<svg
   viewBox="0 0 46 46"
   width="46"
   height="46"
   version="1.1"
   id="svg1"
   xmlns="http://www.w3.org/2000/svg"
   xmlns:svg="http://www.w3.org/2000/svg">
  <defs
     id="defs1" />
  <path
     d="M 23,0 C 10.309534,0 0,10.309534 0,23 0,35.690466 10.309534,46 23,46 35.690466,46 46,35.690466 46,23 46,10.309534 35.690466,0 23,0 Z m 0,2 C 34.609534,2 44,11.390466 44,23 44,34.609534 34.609534,44 23,44 11.390466,44 2,34.609534 2,23 2,11.390466 11.390466,2 23,2 Z M 19,9 9,18 h 6.78125 c 0.02,2.847 2.186281,5.730469 5.988281,5.730469 0.36,0 0.760157,-0.04008 1.160157,-0.08008 -0.18,0.45 -0.369141,0.819687 -0.369141,1.429687 0,1.15 0.579844,1.84 1.089844,2.5 -1.63,0.11 -4.660625,0.299453 -6.890625,1.689453 -2.13,1.29 -2.779297,3.160469 -2.779297,4.480469 0,2.72 2.52,5.25 7.75,5.25 6.2,0 9.490234,-3.489453 9.490234,-6.939453 0,-2.53 -1.44125,-3.780625 -3.03125,-5.140625 l -1.289062,-1.029297 c -0.4,-0.32 -0.951172,-0.770313 -0.951172,-1.570313 0,-0.809999 0.551484,-1.330546 1.021484,-1.810546 1.51,-1.2 3.029297,-2.549532 3.029297,-5.269532 0,-1.043 -0.243797,-1.891843 -0.591797,-2.589843 L 33,11.570312 v 3.707032 C 32.405,15.623344 32,16.261 32,17 v 6 c 0,1.104 0.896,2 2,2 1.104,0 2,-0.896 2,-2 v -6 c 0,-0.738 -0.405,-1.375656 -1,-1.722656 V 10 C 35,9.957 34.98061,9.92091 34.97461,9.878906 L 36,9 Z m 3.269531,3.240234 c 3,0 4.550781,4.109766 4.550781,6.759766 0,0.65 -0.08039,1.819922 -0.90039,2.669922 -0.58,0.59 -1.548984,1.029297 -2.458984,1.029297 -3.09,0 -4.511719,-4.079063 -4.511719,-6.539063 0,-0.95 0.190781,-1.939218 0.800781,-2.699218 0.58,-0.75 1.589531,-1.220704 2.519531,-1.220704 z m 1.769531,16.369141 c 0.370001,0 0.551797,0.001 0.841797,0.04102 2.74,1.98 3.919922,2.969843 3.919922,4.839843 0,2.27 -1.830781,3.970704 -5.300781,3.970704 -3.86,0 -6.339844,-1.870469 -6.339844,-4.480469 0,-2.61 2.29961,-3.48125 3.09961,-3.78125 1.51,-0.52 3.459296,-0.589844 3.779296,-0.589844 z"
     id="path1"
     style="fill:#ffffff" />
</svg>
