<?xml version="1.0" encoding="UTF-8" standalone="no"?>
<svg
   viewBox="0 0 26 26"
   width="104"
   height="104"
   version="1.1"
   id="svg1"
   xmlns="http://www.w3.org/2000/svg"
   xmlns:svg="http://www.w3.org/2000/svg">
  <defs
     id="defs1" />
  <path
     d="M 13,0 C 5.8321388,0 0,5.832144 0,13 0,20.167856 5.8321388,26 13,26 20.167861,26 26,20.167856 26,13 26,5.832144 20.167861,0 13,0 Z m 0,2 C 19.086982,2 24,6.9130223 24,13 24,19.086978 19.086982,24 13,24 6.9130183,24 2,19.086978 2,13 2,6.9130223 6.9130183,2 13,2 Z M 8,5 A 1,1 0 0 0 8,7 1,1 0 0 0 8,5 Z M 7,8 V 19 H 9 V 8 Z m 4,0 v 1 10 h 4.5 C 18.525577,19 21,16.525577 21,13.5 21,10.474423 18.525577,8 15.5,8 Z m 2,2 h 2.5 c 1.944423,0 3.5,1.555577 3.5,3.5 0,1.944423 -1.555577,3.5 -3.5,3.5 H 13 Z"
     id="path1"
     style="fill:#ffffff" />
</svg>
