<svg width="720" height="720" xmlns="http://www.w3.org/2000/svg" xmlns:xlink="http://www.w3.org/1999/xlink" xml:space="preserve" overflow="hidden"><g transform="translate(-920 -693)"><path d="M1032.5 805.5 1032.5 1300.5 1527.5 1300.5 1527.5 805.5 1032.5 805.5ZM1077.5 850.5 1482.5 850.5 1482.5 1255.5 1077.5 1255.5 1077.5 850.5ZM1351.19 918.045C1322.32 918.045 1312.43 938.682 1312.43 952.542L1312.43 989.323C1312.43 1008 1322.6 1025.84 1348.91 1025.84 1393.05 1025.8 1387.71 992.394 1387.71 969.197L1353.21 969.197 1353.21 981.369 1373.56 981.369C1373.56 999.482 1365.08 1011.65 1348.95 1011.65 1336.22 1011.65 1328.87 1000.6 1328.87 985.324L1328.87 954.783C1328.87 940.63 1342.15 932.458 1351.19 932.458 1367.32 932.458 1373.51 946.609 1373.51 946.609L1385.69 938.39C1385.69 938.39 1379.77 918.045 1351.19 918.045ZM1225.64 987.565C1205.28 987.565 1174.18 989.525 1145.05 988.4L1145.05 997.452C1162.59 1000.85 1169.92 999.142 1169.92 1024.61L1169.92 1149.06C1169.92 1174.8 1162.57 1172.83 1145.05 1176.22L1145.05 1185.58C1153.53 1185.29 1168.2 1184.44 1183.19 1184.44 1197.34 1184.44 1215.74 1185.02 1223.66 1185.58L1223.66 1176.22C1201.03 1173.12 1194.22 1175.66 1194.22 1149.06L1194.22 1096.46C1201.87 1097.02 1208.39 1096.99 1218.56 1096.99 1237.8 1131.5 1256.18 1157.28 1266.64 1169.46 1285.58 1192.36 1315.89 1188.98 1323.24 1185.58L1323.24 1177.1C1311.93 1177.08 1300.58 1169.45 1292.39 1160.4 1278.53 1145.42 1259.86 1121.08 1244.58 1093.65 1270.05 1087.42 1289.01 1063.38 1289.01 1039.6 1289.01 1003.96 1261.55 987.565 1225.64 987.565ZM1219.71 1001.94C1246.3 1001.94 1262.11 1015.8 1262.11 1041.27 1262.09 1066.2 1245.13 1082.84 1216.85 1082.84 1206.39 1082.84 1201.58 1082.57 1194.22 1082L1194.22 1002.77C1201.58 1001.92 1211.2 1001.94 1219.71 1001.94Z" stroke="#FFFFFF" stroke-width="0.666667" fill="#FFFFFF"/></g></svg>