<?xml version="1.0" encoding="UTF-8" standalone="no"?>
<svg
   width="32px"
   height="32px"
   viewBox="0 0 32 32"
   version="1.1"
   id="svg1"
   sodipodi:docname="homeicon-32x32.svg"
   inkscape:version="1.3.2 (091e20e, 2023-11-25)"
   xmlns:inkscape="http://www.inkscape.org/namespaces/inkscape"
   xmlns:sodipodi="http://sodipodi.sourceforge.net/DTD/sodipodi-0.dtd"
   xmlns="http://www.w3.org/2000/svg"
   xmlns:svg="http://www.w3.org/2000/svg"
   xmlns:rdf="http://www.w3.org/1999/02/22-rdf-syntax-ns#"
   xmlns:cc="http://creativecommons.org/ns#"
   xmlns:dc="http://purl.org/dc/elements/1.1/">
  <defs
     id="defs1" />
  <sodipodi:namedview
     id="namedview1"
     pagecolor="#ffffff"
     bordercolor="#000000"
     borderopacity="0.25"
     inkscape:showpageshadow="2"
     inkscape:pageopacity="0.0"
     inkscape:pagecheckerboard="0"
     inkscape:deskcolor="#d1d1d1"
     inkscape:zoom="7.375"
     inkscape:cx="34.644068"
     inkscape:cy="-12.542373"
     inkscape:window-width="1472"
     inkscape:window-height="920"
     inkscape:window-x="0"
     inkscape:window-y="36"
     inkscape:window-maximized="0"
     inkscape:current-layer="Group" />
  <title
     id="title1">Group</title>
  <g
     id="Page-1"
     stroke="none"
     stroke-width="1"
     fill="none"
     fill-rule="evenodd">
    <g
       id="Group">
      <rect
         id="Rectangle"
         fill="#E5261F"
         x="0"
         y="0"
         width="32"
         height="32"
         rx="3" />
      <path
         d="m 11.541701,22.936042 q -0.24,0.960001 -0.213333,1.440002 0.02667,0.480001 0.453334,0.640001 0.426667,0.16 1.333335,0.213333 l -0.106667,0.533334 q -0.693334,-0.05333 -1.760002,-0.05333 -1.066668,-0.02667 -2.160003,-0.02667 -1.2266682,0 -2.2933362,0.02667 -1.0400013,0 -1.7333355,0.05333 l 0.1333335,-0.533334 q 0.8800011,-0.05333 1.3600017,-0.213333 0.5066673,-0.16 0.800001,-0.640001 0.2933337,-0.480001 0.533334,-1.440002 L 11.408368,9.7093589 Q 11.675035,8.7226909 11.621702,8.269357 11.568368,7.7893564 11.141701,7.6293562 10.7417,7.4426893 9.8350326,7.4160226 l 0.1333335,-0.533334 q 0.6400009,0.026667 1.7066689,0.053333 1.093335,0.026667 2.320003,0.026667 1.093335,0 2.133336,-0.026667 1.066668,-0.026667 1.813336,-0.053333 l -0.133334,0.533334 Q 16.901708,7.4426893 16.395041,7.6293562 15.888374,7.7893564 15.59504,8.269357 15.328373,8.7226909 15.061706,9.7093589 Z m 9.440012,1.413335 q 0.560001,0 0.933335,-0.426667 0.4,-0.453334 0.693334,-1.333335 l 0.453334,-1.360002 h 0.533334 l -0.693334,2.053336 q -0.506667,1.466669 -1.413335,2.160003 -0.880001,0.693334 -2.053336,0.693334 -1.546669,0 -2.240003,-0.880001 -0.693334,-0.880001 -0.533334,-2.400003 l 0.426667,-3.493338 q 0.106667,-1.093334 0.02667,-1.706668 -0.08,-0.640001 -0.320001,-0.986668 -0.24,-0.373334 -0.693334,-0.640001 l 0.05333,-0.266667 q 1.253335,0.106667 2.106669,0.346667 0.880001,0.24 1.413335,0.746668 0.533334,0.48 0.720001,1.333335 0.213334,0.826667 0.106667,2.186669 l -0.240001,2.880004 q -0.02667,0.48 0.106667,0.800001 0.16,0.293333 0.613334,0.293333 z M 16.475041,16.1627 q -1.440002,0.400001 -1.973336,0.293334 -0.506667,-0.106667 -0.453334,-0.533334 0.02667,-0.4 0.533334,-0.506667 0.506668,-0.133334 1.893336,0.266667 z m 6.080008,-8.6133439 q -0.480001,0.5066673 -0.826668,1.333335 -0.32,0.8000011 -0.613334,1.7600019 -0.293334,0.933335 -0.666668,1.893336 -0.346667,0.933335 -0.906667,1.733336 -0.533334,0.773334 -1.360002,1.253335 -0.826668,0.453333 -2.053336,0.426667 l 0.05333,-0.266667 q 1.360002,-0.133334 2.160003,-0.826668 0.826668,-0.693334 1.306668,-1.733335 0.480001,-1.040002 0.800001,-2.160003 0.346667,-1.1466683 0.720001,-2.1333363 0.373334,-0.9866679 0.986668,-1.600002 0.453334,-0.4266672 0.906668,-0.5600007 0.480001,-0.1600002 0.906668,-0.1600002 1.093335,0 1.653335,0.6133341 0.586668,0.5866674 0.560001,1.5200019 -0.02667,0.5066674 -0.266667,1.0400014 -0.24,0.5333338 -0.720001,0.9066678 -0.453334,0.373334 -1.146668,0.373334 -0.693334,0 -1.120001,-0.426667 -0.426668,-0.453334 -0.426668,-1.1466685 0.02667,-0.6400009 0.453334,-1.2800017 0.453334,-0.6666675 1.173335,-1.0400013 -0.08,0 -0.16,-0.026667 -0.05333,-0.026667 -0.186667,-0.026667 -0.426667,0.026667 -0.693334,0.1600002 -0.266667,0.1333335 -0.533334,0.3733338 z"
         id="text1"
         style="font-style:italic;font-weight:600;font-size:26.6667px;font-family:'Playfair Display';-inkscape-font-specification:'Playfair Display Semi-Bold Italic';letter-spacing:0px;fill:#ffffff"
         aria-label="K"
         inkscape:label="K" />
    </g>
  </g>
  <metadata
     id="metadata1">
    <rdf:RDF>
      <cc:Work
         rdf:about="">
        <dc:title>Group</dc:title>
      </cc:Work>
    </rdf:RDF>
  </metadata>
</svg>
