<?xml version="1.0" encoding="UTF-8" standalone="no"?>
<!-- Uploaded to: SVG Repo, www.svgrepo.com, Generator: SVG Repo Mixer Tools -->

<svg
   width="572.5"
   height="571.42773"
   viewBox="0 0 17.175 17.142832"
   id="meteor-icon-kit__solid-linkedin"
   fill="none"
   version="1.1"
   xmlns="http://www.w3.org/2000/svg"
   xmlns:svg="http://www.w3.org/2000/svg">
  <defs
     id="defs1" />
  <path
     id="rect1"
     style="vector-effect:non-scaling-stroke;fill:#ffffff;stroke-width:0.03;-inkscape-stroke:hairline"
     d="M 2.0625001,-1.3491211e-7 C 0.9214312,-1.3491211e-7 9.5367431e-8,0.92679087 9.5367431e-8,2.0624999 c 0,1.135719 0.921431104632569,2.0625 2.062500004632569,2.0625 1.1410689,0 2.0625,-0.921431 2.0625,-2.0625 0,-1.13570903 -0.9267911,-2.06250003491211 -2.0625,-2.06250003491211 z M 12.905391,5.4053909 c -1.730399,0 -2.892869,0.948205 -3.3696679,1.8481636 H 9.4875001 V 5.6892779 h -3.4125 V 17.142832 h 3.557109 v -5.667774 c 0,-1.4946975 0.284002,-2.9411125 2.1374999,-2.9411125 1.821499,0 1.848282,1.7089005 1.848282,3.0374995 v 5.571387 H 17.175 v -6.278496 c 0,-3.0857965 -0.669613,-5.4589451 -4.269609,-5.4589451 z M 0.2839454,5.6892779 V 17.142832 h 3.5571094 0.00539 V 5.6892779 Z" />
</svg>
